<svg height="512pt" viewBox="0 0 512 512" width="512pt" xmlns="http://www.w3.org/2000/svg"><path d="m351.878906 296.285156c-1.460937-2.355468-4.035156-3.789062-6.808594-3.789062h-179.375c-2.773437 0-5.347656 1.433594-6.808593 3.789062l-121.417969 195.980469c-3.308594 5.335937.53125 12.226563 6.808594 12.226563h422.210937c6.277344 0 10.113281-6.890626 6.808594-12.226563zm0 0" fill="#d93131"/><path d="m466.488281 504.492188h-26.359375l-131.339844-211.992188h36.28125c2.773438 0 5.347657 1.433594 6.808594 3.789062l121.417969 195.976563c3.304687 5.335937-.535156 12.226563-6.808594 12.226563zm0 0" fill="#c62828"/><path d="m98.6875 462.375h-85.171875c-3.316406 0-6.007813-2.6875-6.007813-6.003906v-23.582032c0-8.417968 6.824219-15.242187 15.242188-15.242187h66.703125c8.417969 0 15.242187 6.824219 15.242187 15.242187v23.582032c0 3.316406-2.6875 6.003906-6.007812 6.003906zm0 0" fill="#8d9ca8"/><path d="m104.695312 432.785156v23.585938c0 3.3125-2.683593 6.007812-6.007812 6.007812h-19.839844c3.3125 0 6.003906-2.695312 6.003906-6.007812v-23.585938c0-8.417968-6.828124-15.234375-15.246093-15.234375h19.851562c8.417969 0 15.238281 6.816407 15.238281 15.234375zm0 0" fill="#7a8c98"/><path d="m37.566406 69.085938h37.070313v348.460937h-37.070313zm0 0" fill="#596c76"/><path d="m56.101562 69.085938h18.535157v348.460937h-18.535157zm0 0" fill="#465a61"/><path d="m99.917969 51.324219c0 24.199219-19.617188 43.8125-43.816407 43.8125-24.199218 0-43.816406-19.613281-43.816406-43.8125s19.617188-43.816407 43.816406-43.816407c24.199219 0 43.816407 19.617188 43.816407 43.816407zm0 0" fill="#f7c22c"/><path d="m99.917969 51.324219c0 24.195312-19.621094 43.816406-43.816407 43.816406-12.140624 0-23.125-4.933594-31.0625-12.914063 3.585938.949219 7.339844 1.453126 11.210938 1.453126 24.207031 0 43.816406-19.621094 43.816406-43.816407 0-12.0625-4.875-22.984375-12.753906-30.902343 18.769531 4.953124 32.605469 22.042968 32.605469 42.363281zm0 0" fill="#eeb900"/><path d="m498.109375 462.375h-85.175781c-3.316406 0-6.003906-2.6875-6.003906-6.003906v-23.582032c0-8.417968 6.824218-15.242187 15.242187-15.242187h66.703125c8.417969 0 15.242188 6.824219 15.242188 15.242187v23.582032c0 3.316406-2.6875 6.003906-6.007813 6.003906zm0 0" fill="#8d9ca8"/><path d="m504.113281 432.785156v23.585938c0 3.3125-2.679687 6.007812-6.003906 6.007812h-19.84375c3.316406 0 6.007813-2.695312 6.007813-6.007812v-23.585938c0-8.417968-6.828126-15.234375-15.246094-15.234375h19.851562c8.417969 0 15.234375 6.816407 15.234375 15.234375zm0 0" fill="#7a8c98"/><path d="m436.988281 69.085938h37.070313v348.460937h-37.070313zm0 0" fill="#596c76"/><path d="m455.523438 69.085938h18.535156v348.460937h-18.535156zm0 0" fill="#465a61"/><path d="m499.339844 51.324219c0 24.199219-19.617188 43.8125-43.816406 43.8125-24.199219 0-43.816407-19.613281-43.816407-43.8125s19.617188-43.816407 43.816407-43.816407c24.199218 0 43.816406 19.617188 43.816406 43.816407zm0 0" fill="#f7c22c"/><path d="m499.339844 51.324219c0 24.195312-19.621094 43.816406-43.816406 43.816406-12.144532 0-23.125-4.933594-31.0625-12.914063 3.582031.949219 7.335937 1.453126 11.210937 1.453126 24.207031 0 43.816406-19.621094 43.816406-43.816407 0-12.0625-4.875-22.984375-12.753906-30.902343 18.769531 4.953124 32.605469 22.042968 32.605469 42.363281zm0 0" fill="#eeb900"/><path d="m255.382812 204.390625c-103.710937.882813-180.746093-59.136719-180.746093-59.136719v28.246094c72.132812 82.085938 180.746093 77.671875 180.746093 77.671875s108.613282 4.414063 180.746094-77.671875v-28.246094s-77.035156 60.019532-180.746094 59.136719zm0 0" fill="#f7c22c"/><path d="m436.121094 155.324219v18.179687c-72.125 82.074219-180.738282 77.671875-180.738282 77.671875s-108.613281 4.402344-180.742187-77.671875v-18.179687c72.128906 82.085937 180.742187 77.671875 180.742187 77.671875s108.613282 4.414062 180.738282-77.671875zm0 0" fill="#eeb900"/><path d="m488.875 410.039062h-7.308594v-314.519531c15.117188-8.9375 25.28125-25.398437 25.28125-44.199219 0-28.296874-23.023437-51.320312-51.324218-51.320312-11.40625 0-22.210938 3.664062-31.238282 10.597656-3.289062 2.527344-3.90625 7.238282-1.382812 10.53125 2.527344 3.285156 7.242187 3.90625 10.53125 1.378906 6.378906-4.902343 14.019531-7.492187 22.089844-7.492187 20.019531 0 36.308593 16.289063 36.308593 36.308594s-16.289062 36.304687-36.308593 36.304687c-20.019532 0-36.308594-16.285156-36.308594-36.304687 0-1.511719.09375-3.035157.277344-4.527344.511718-4.113281-2.414063-7.863281-6.527344-8.371094-4.105469-.507812-7.863282 2.414063-8.375 6.527344-.257813 2.101563-.390625 4.246094-.390625 6.371094 0 18.796875 10.164062 35.257812 25.28125 44.195312v45.3125c-12.664063 9.132813-83.191407 56.800781-174.035157 56.050781-.042968 0-.085937 0-.128906 0-.730468.007813-1.445312.011719-2.175781.011719-87.722656-.007812-156.355469-45.070312-170.996094-55.449219v-45.925781c15.113281-8.9375 25.28125-25.398437 25.28125-44.199219 0-28.296874-23.023437-51.320312-51.324219-51.320312-28.300781 0-51.324218 23.023438-51.324218 51.324219 0 18.796875 10.167968 35.257812 25.28125 44.195312v314.519531h-7.308594c-12.542969 0-22.75 10.207032-22.75 22.75v23.582032c0 7.449218 6.0625 13.511718 13.515625 13.511718h28.984375l-11.414062 18.429688c-2.964844 4.78125-3.105469 10.804688-.367188 15.71875s7.929688 7.96875 13.554688 7.96875h422.214843c5.625 0 10.820313-3.054688 13.558594-7.96875 2.734375-4.914062 2.59375-10.9375-.367187-15.71875l-11.414063-18.429688h29.847656c7.449219 0 13.511719-6.0625 13.511719-13.511718v-23.582032c0-12.542968-10.207031-22.75-22.75-22.75zm-44.378906-308.601562c3.554687.785156 7.242187 1.207031 11.027344 1.207031 3.785156 0 7.472656-.421875 11.027343-1.207031v308.601562h-22.054687zm-369.859375 225.804688c-4.144531 0-7.507813 3.359374-7.507813 7.507812v75.289062h-22.054687v-308.601562c3.554687.785156 7.242187 1.207031 11.027343 1.207031 3.789063 0 7.472657-.421875 11.027344-1.207031v198.609375c0 4.144531 3.363282 7.507813 7.511719 7.507813 4.144531 0 7.507813-3.363282 7.507813-7.507813v-107.917969c35.988281 34.339844 77.808593 50.605469 108.070312 58.265625 35.183594 8.910157 61.878906 8.394531 65.164062 8.289063.503907.015625 1.550782.042968 3.09375.042968 8.550782 0 32.265626-.785156 62.074219-8.332031 30.5-7.722656 72.75-24.183593 108.929688-59.089843v215.980468l-71.21875-114.953125c-2.851563-4.597656-7.78125-7.34375-13.191407-7.34375h-179.375c-5.410156 0-10.339843 2.742188-13.191406 7.34375l-70.359375 113.5625v-71.144531c0-4.148438-3.359375-7.507812-7.507812-7.507812zm48.332031-145.273438c30.085938 13.90625 77.46875 30.375 132.414062 29.929688 54.925782.441406 102.324219-16.023438 132.414063-29.929688 17.828125-8.242188 31.738281-16.480469 40.820313-22.363281v11.035156c-35.558594 39.335937-80.003907 57.09375-111.277344 65.074219-34.785156 8.878906-61.398438 7.960937-61.652344 7.953125-.105469-.003907-.203125-.003907-.308594-.003907-.101562 0-.203125 0-.304687.003907-1.035157.042969-103.953125 3.304687-172.929688-73.027344v-11.035156c9.082031 5.882812 22.992188 14.121093 40.824219 22.363281zm-103.175781-130.644531c0-20.019531 16.289062-36.308594 36.308593-36.308594 20.019532 0 36.308594 16.289063 36.308594 36.308594s-16.289062 36.304687-36.308594 36.304687c-20.019531 0-36.308593-16.285156-36.308593-36.304687zm-4.777344 403.542969v-22.078126c0-4.265624 3.472656-7.734374 7.734375-7.734374h66.707031c4.261719 0 7.734375 3.46875 7.734375 7.734374v22.078126zm451.910156 41.859374c-.144531.257813-.3125.257813-.4375.257813h-422.214843c-.121094 0-.292969 0-.433594-.257813-.144532-.257812-.054688-.402343.011718-.507812l16.3125-26.332031h38.523438c7.453125 0 13.515625-6.0625 13.515625-13.515625v-23.582032c0-10.070312-6.578125-18.628906-15.664063-21.613281l68.730469-110.933593c.089844-.148438.25-.238282.425781-.238282h179.375c.171876 0 .332032.089844.425782.238282l68.878906 111.175781c-8.714844 3.191406-14.953125 11.566406-14.953125 21.375v23.578125c0 7.453125 6.0625 13.515625 13.515625 13.515625h37.660156l16.316406 26.335937c.066407.101563.15625.246094.011719.503906zm29.683594-41.859374h-82.171875v-22.078126c0-4.265624 3.46875-7.734374 7.734375-7.734374h66.703125c4.265625 0 7.734375 3.46875 7.734375 7.734374zm0 0"/></svg>