<svg id="Layer" enable-background="new 0 0 64 64" height="512" viewBox="0 0 64 64" width="512" xmlns="http://www.w3.org/2000/svg"><path d="m49 12v23.78c0 3.9-1.89 7.56-5.08 9.81l-11.92 8.41-11.92-8.41c-3.19-2.25-5.08-5.91-5.08-9.81v-23.78c0-1.1.9-2 2-2h30c1.1 0 2 .9 2 2zm-11.08 18.25 4.08-5.25-7-.04-3-6.96-3 6.96h-7l4 6-1 7.04 7-4.04 7 4.04z" fill="#4dd0e1"/><path d="m42 25-4.08 5.25 1.08 7.75-7-4.04-7 4.04 1-7.04-4-6h7l3-6.96 3 6.96z" fill="#ff7043"/><g fill="#012e52"><path d="m51 12c0-2.206-1.794-4-4-4h-30c-2.206 0-4 1.794-4 4v23.78c0 4.548 2.216 8.827 5.927 11.444l11.92 8.41c.346.244.749.366 1.153.366s.807-.122 1.153-.366l11.92-8.41c3.711-2.618 5.927-6.896 5.927-11.444zm-34-2v2zm30 25.78c0 3.25-1.583 6.306-4.233 8.176l-10.767 7.596-10.767-7.597c-2.65-1.869-4.233-4.925-4.233-8.175l.006-23.78h29.994z"/><path d="m23.913 31.435-.893 6.284c-.108.757.226 1.51.86 1.938.338.228.728.343 1.12.343.345 0 .689-.089 1-.268l6-3.463 6 3.463c.661.381 1.482.354 2.117-.074.634-.427.969-1.178.863-1.935l-.963-6.914 3.562-4.583c.467-.601.553-1.416.22-2.101s-1.026-1.122-1.788-1.126l-5.692-.033-2.482-5.759c-.316-.732-1.039-1.207-1.837-1.207s-1.521.475-1.836 1.208l-2.479 5.751h-5.685c-.738 0-1.416.406-1.763 1.056-.348.65-.31 1.439.099 2.053zm5.087-4.475c.798 0 1.521-.475 1.836-1.208l1.164-2.699 1.164 2.699c.314.729 1.031 1.204 1.825 1.208l2.942.017-1.59 2.046c-.332.426-.476.968-.402 1.503l.515 3.695-3.454-1.993c-.309-.178-.654-.268-1-.268s-.69.089-1 .268l-3.443 1.987.422-2.973c.069-.487-.043-.981-.316-1.391l-1.927-2.891z"/></g></svg>